<mxfile host="65bd71144e">
    <diagram id="OSXaPJTHDceDlfOzGBDW" name="Page-1">
        <mxGraphModel dx="1021" dy="729" grid="1" gridSize="10" guides="1" tooltips="1" connect="1" arrows="1" fold="1" page="1" pageScale="1" pageWidth="827" pageHeight="1169" background="#1E1924" math="1" shadow="0">
            <root>
                <mxCell id="0"/>
                <mxCell id="1" parent="0"/>
                <mxCell id="5" style="edgeStyle=none;html=1;exitX=0.5;exitY=1;exitDx=0;exitDy=0;fontSize=20;strokeWidth=2;strokeColor=#FFFFFF;" parent="1" source="3" target="4" edge="1">
                    <mxGeometry relative="1" as="geometry"/>
                </mxCell>
                <mxCell id="3" value="&lt;font size=&quot;1&quot; style=&quot;&quot;&gt;&lt;b style=&quot;font-size: 22px;&quot;&gt;START&lt;/b&gt;&lt;/font&gt;" style="rounded=1;whiteSpace=wrap;html=1;arcSize=50;fontColor=#FFFFFF;fillColor=#18141D;strokeColor=#FFFFFF;" parent="1" vertex="1">
                    <mxGeometry x="355" y="40" width="120" height="60" as="geometry"/>
                </mxCell>
                <mxCell id="25" value="" style="edgeStyle=none;html=1;fontSize=20;fontColor=#00CCCC;strokeWidth=2;strokeColor=#FFFFFF;" parent="1" source="4" target="24" edge="1">
                    <mxGeometry relative="1" as="geometry"/>
                </mxCell>
                <mxCell id="4" value="&lt;font color=&quot;#ffffff&quot;&gt;&lt;b style=&quot;&quot;&gt;&lt;font style=&quot;font-size: 22px;&quot;&gt;Input: &lt;/font&gt;&lt;/b&gt;&lt;br&gt;&lt;span style=&quot;font-size: 18px;&quot;&gt;Event lists for individual tile, energy range, &lt;/span&gt;&lt;br&gt;&lt;span style=&quot;font-size: 18px;&quot;&gt;and RA &amp;amp; Dec center for the final image&lt;/span&gt;&lt;/font&gt;" style="shape=parallelogram;perimeter=parallelogramPerimeter;whiteSpace=wrap;html=1;fixedSize=1;fontSize=20;fillColor=#18141D;strokeColor=#FFFFFF;" parent="1" vertex="1">
                    <mxGeometry x="218" y="130" width="395" height="90" as="geometry"/>
                </mxCell>
                <mxCell id="15" value="" style="edgeStyle=none;html=1;fontSize=20;fontColor=#00CCCC;strokeWidth=2;strokeColor=#FFFFFF;" parent="1" source="6" target="8" edge="1">
                    <mxGeometry relative="1" as="geometry"/>
                </mxCell>
                <mxCell id="6" value="&lt;font color=&quot;#ffffff&quot; style=&quot;font-size: 18px;&quot;&gt;&lt;font style=&quot;font-size: 22px;&quot;&gt;&lt;b&gt;Recenter all tiles:&lt;/b&gt;&lt;/font&gt;&lt;br&gt;&lt;font style=&quot;font-size: 18px;&quot;&gt;&lt;font style=&quot;font-size: 18px;&quot;&gt;E&lt;/font&gt;&lt;font style=&quot;font-size: 18px;&quot;&gt;&lt;font style=&quot;font-size: 18px;&quot;&gt;xtract the RA_Cen &amp;amp; &lt;/font&gt;&lt;font style=&quot;font-size: 18px;&quot;&gt;Dec_Cen from all tiles and recenter them to this coordinate usin&lt;/font&gt;&lt;font style=&quot;font-size: 18px;&quot;&gt;g&amp;nbsp;&lt;/font&gt;&lt;/font&gt;&lt;/font&gt;&lt;/font&gt;&lt;span style=&quot;font-family: &amp;quot;Droid Sans Mono&amp;quot;, &amp;quot;monospace&amp;quot;, monospace;&quot;&gt;&lt;font style=&quot;font-size: 18px;&quot; color=&quot;#00cccc&quot;&gt;radec2xy&lt;/font&gt;&lt;/span&gt;" style="rounded=0;whiteSpace=wrap;html=1;fontSize=20;fontStyle=0;strokeColor=#FFFFFF;fillColor=#18141D;" parent="1" vertex="1">
                    <mxGeometry x="205.5" y="350" width="420" height="100" as="geometry"/>
                </mxCell>
                <mxCell id="21" value="" style="edgeStyle=none;html=1;fontSize=20;fontColor=#00CCCC;strokeWidth=2;entryX=0.5;entryY=0;entryDx=0;entryDy=0;strokeColor=#FFFFFF;" parent="1" source="8" target="32" edge="1">
                    <mxGeometry relative="1" as="geometry">
                        <mxPoint x="450" y="610" as="targetPoint"/>
                    </mxGeometry>
                </mxCell>
                <mxCell id="23" style="edgeStyle=none;html=1;fontSize=20;fontColor=#00CCCC;entryX=0;entryY=0.5;entryDx=0;entryDy=0;strokeWidth=2;strokeColor=#FFFFFF;" parent="1" source="8" target="28" edge="1">
                    <mxGeometry relative="1" as="geometry">
                        <mxPoint x="230" y="1010" as="targetPoint"/>
                        <Array as="points">
                            <mxPoint x="110" y="530"/>
                            <mxPoint x="110" y="840"/>
                        </Array>
                    </mxGeometry>
                </mxCell>
                <mxCell id="8" value="&lt;font style=&quot;font-size: 18px;&quot;&gt;&lt;font style=&quot;color: rgb(255, 255, 255); font-size: 22px;&quot;&gt;&lt;b&gt;Extract the lightcurve&lt;/b&gt;&lt;/font&gt;&lt;br&gt;&lt;font color=&quot;#ffffff&quot;&gt;Run the&amp;nbsp;&lt;/font&gt;&lt;span style=&quot;font-family: &amp;quot;Droid Sans Mono&amp;quot;, &amp;quot;monospace&amp;quot;, monospace;&quot;&gt;&lt;font color=&quot;#00cccc&quot;&gt;flaregti&lt;/font&gt;&lt;font color=&quot;#ffffff&quot;&gt;&amp;nbsp;&lt;/font&gt;&lt;/span&gt;&lt;font color=&quot;#ffffff&quot;&gt;command to extract the lightcurve &lt;/font&gt;&lt;br&gt;&lt;font color=&quot;#ffffff&quot;&gt;in hard band (5-10 kev). Output: rate/area vs time&lt;/font&gt;&lt;br&gt;&lt;/font&gt;" style="rounded=0;whiteSpace=wrap;html=1;fontSize=20;fontStyle=0;strokeColor=#FFFFFF;fillColor=#18141D;" parent="1" vertex="1">
                    <mxGeometry x="188" y="480" width="455" height="100" as="geometry"/>
                </mxCell>
                <mxCell id="22" style="edgeStyle=none;html=1;entryX=1;entryY=0.5;entryDx=0;entryDy=0;fontSize=20;fontColor=#00CCCC;strokeWidth=2;exitX=1;exitY=0.5;exitDx=0;exitDy=0;strokeColor=#FFFFFF;" parent="1" source="32" target="8" edge="1">
                    <mxGeometry relative="1" as="geometry">
                        <mxPoint x="600.5" y="690" as="sourcePoint"/>
                        <Array as="points">
                            <mxPoint x="710" y="690"/>
                            <mxPoint x="710" y="530"/>
                        </Array>
                    </mxGeometry>
                </mxCell>
                <mxCell id="26" value="" style="edgeStyle=none;html=1;fontSize=20;fontColor=#00CCCC;strokeWidth=2;strokeColor=#FFFFFF;" parent="1" source="24" target="6" edge="1">
                    <mxGeometry relative="1" as="geometry"/>
                </mxCell>
                <mxCell id="24" value="&lt;font style=&quot;&quot;&gt;&lt;span style=&quot;font-size: 22px;&quot;&gt;&lt;b&gt;&lt;font color=&quot;#f1efef&quot;&gt;Make images for all tiles&lt;/font&gt;&lt;/b&gt;&lt;/span&gt;&lt;br&gt;&lt;font style=&quot;font-size: 18px;&quot;&gt;&lt;font style=&quot;font-size: 18px;&quot;&gt;&lt;font style=&quot;font-size: 18px;&quot;&gt;&lt;font color=&quot;#ffffff&quot;&gt;Run the&lt;/font&gt;&amp;nbsp;&lt;/font&gt;&lt;/font&gt;&lt;/font&gt;&lt;/font&gt;&lt;span style=&quot;font-family: &amp;quot;Droid Sans Mono&amp;quot;, &amp;quot;monospace&amp;quot;, monospace;&quot;&gt;&lt;font style=&quot;font-size: 18px;&quot; color=&quot;#00cccc&quot;&gt;evtool&lt;/font&gt;&lt;/span&gt;&lt;font style=&quot;font-size: 18px;&quot;&gt;&amp;nbsp;&lt;/font&gt;&lt;font style=&quot;font-size: 18px;&quot;&gt;&lt;font color=&quot;#ffffff&quot;&gt;command using the argument&amp;nbsp;&lt;/font&gt;&lt;span style=&quot;font-family: &amp;quot;Droid Sans Mono&amp;quot;, &amp;quot;monospace&amp;quot;, monospace;&quot;&gt;&lt;font color=&quot;#ff8000&quot;&gt;gti=&quot;GTI&quot;&lt;/font&gt;&lt;/span&gt;&amp;nbsp;&lt;/font&gt;" style="rounded=0;whiteSpace=wrap;html=1;fontSize=20;fontStyle=0;fillColor=#18141D;fillStyle=solid;strokeColor=#FFFFFF;" parent="1" vertex="1">
                    <mxGeometry x="150.5" y="250" width="530" height="70" as="geometry"/>
                </mxCell>
                <mxCell id="27" value="&lt;font color=&quot;#ffffff&quot; style=&quot;font-size: 16px;&quot;&gt;Use this threshold&amp;nbsp;in the&lt;br&gt;&lt;/font&gt;&lt;span style=&quot;color: rgb(0, 204, 204); font-family: &amp;quot;Droid Sans Mono&amp;quot;, &amp;quot;monospace&amp;quot;, monospace;&quot;&gt;&lt;font style=&quot;font-size: 16px;&quot;&gt;flaregti&lt;/font&gt;&lt;/span&gt;&lt;font color=&quot;#ffffff&quot; style=&quot;font-size: 16px;&quot;&gt;&amp;nbsp;command&amp;nbsp;&lt;/font&gt;" style="text;html=1;align=center;verticalAlign=middle;resizable=0;points=[];autosize=1;strokeColor=none;fillColor=none;fontSize=20;fontColor=#FF8000;rotation=90;" parent="1" vertex="1">
                    <mxGeometry x="643" y="580" width="200" height="60" as="geometry"/>
                </mxCell>
                <mxCell id="30" value="" style="edgeStyle=none;html=1;fontSize=16;fontColor=#00CCCC;strokeWidth=2;strokeColor=#FFFFFF;" parent="1" source="28" target="29" edge="1">
                    <mxGeometry relative="1" as="geometry"/>
                </mxCell>
                <mxCell id="28" value="&lt;font style=&quot;color: rgb(255, 255, 255);&quot;&gt;&lt;span style=&quot;font-size: 22px;&quot;&gt;&lt;b&gt;Re-make images for all tiles&lt;/b&gt;&lt;/span&gt;&lt;br&gt;&lt;font style=&quot;font-size: 18px;&quot;&gt;&lt;font style=&quot;font-size: 18px;&quot;&gt;&lt;font style=&quot;font-size: 18px;&quot;&gt;Run the&amp;nbsp;&lt;/font&gt;&lt;/font&gt;&lt;/font&gt;&lt;/font&gt;&lt;span style=&quot;font-family: &amp;quot;Droid Sans Mono&amp;quot;, &amp;quot;monospace&amp;quot;, monospace;&quot;&gt;&lt;font color=&quot;#00cccc&quot; style=&quot;font-size: 18px;&quot;&gt;evtool&lt;/font&gt;&lt;/span&gt;&lt;font style=&quot;color: rgb(255, 255, 255); font-size: 18px;&quot;&gt;&amp;nbsp;&lt;/font&gt;&lt;font style=&quot;font-size: 18px;&quot;&gt;&lt;font color=&quot;#ffffff&quot;&gt;command again but using the argument&amp;nbsp;&lt;/font&gt;&lt;span style=&quot;font-family: &amp;quot;Droid Sans Mono&amp;quot;, &amp;quot;monospace&amp;quot;, monospace;&quot;&gt;&lt;font color=&quot;#ff8000&quot;&gt;gti=&quot;FLAREGTI&quot;&lt;/font&gt;&lt;/span&gt;&lt;/font&gt;" style="rounded=0;whiteSpace=wrap;html=1;fontSize=20;fontStyle=0;strokeColor=#FFFFFF;fillColor=#18141D;" parent="1" vertex="1">
                    <mxGeometry x="247" y="790" width="336.75" height="100" as="geometry"/>
                </mxCell>
                <mxCell id="35" value="" style="edgeStyle=none;html=1;strokeWidth=2;fontSize=20;fontColor=#00CCCC;strokeColor=#FFFFFF;" parent="1" source="29" target="34" edge="1">
                    <mxGeometry relative="1" as="geometry"/>
                </mxCell>
                <mxCell id="29" value="&lt;font style=&quot;color: rgb(255, 255, 255);&quot;&gt;&lt;span style=&quot;font-size: 22px;&quot;&gt;&lt;b&gt;Recenter all tiles &amp;amp; combine tiles&lt;/b&gt;&lt;/span&gt;&lt;br&gt;&lt;font style=&quot;font-size: 18px;&quot;&gt;&lt;font style=&quot;font-size: 18px;&quot;&gt;&lt;font style=&quot;font-size: 18px;&quot;&gt;Recenter all tiles to RA &amp;amp; Dec from the input using&amp;nbsp;&lt;/font&gt;&lt;/font&gt;&lt;/font&gt;&lt;/font&gt;&lt;span style=&quot;font-family: &amp;quot;Droid Sans Mono&amp;quot;, &amp;quot;monospace&amp;quot;, monospace;&quot;&gt;&lt;font color=&quot;#00cccc&quot; style=&quot;font-size: 18px;&quot;&gt;radec2xy&lt;/font&gt;&lt;/span&gt;&lt;font style=&quot;color: rgb(255, 255, 255); font-size: 18px;&quot;&gt;&amp;nbsp;&lt;/font&gt;&lt;font style=&quot;font-size: 18px;&quot;&gt;&lt;font color=&quot;#ffffff&quot;&gt;and then combine all tiles into one &lt;/font&gt;&lt;br&gt;&lt;font color=&quot;#ffffff&quot;&gt;image using&amp;nbsp;&lt;/font&gt;&lt;span style=&quot;font-family: &amp;quot;Droid Sans Mono&amp;quot;, &amp;quot;monospace&amp;quot;, monospace;&quot;&gt;&lt;font color=&quot;#00cccc&quot;&gt;evtool&lt;/font&gt; &lt;/span&gt;&lt;font color=&quot;#ffffff&quot;&gt;with argument&amp;nbsp;&lt;/font&gt;&lt;span style=&quot;font-family: &amp;quot;Droid Sans Mono&amp;quot;, &amp;quot;monospace&amp;quot;, monospace;&quot;&gt;&lt;font color=&quot;#ff8000&quot;&gt;gti=&quot;FLAREGTI&quot;&lt;/font&gt;&lt;/span&gt;&lt;font color=&quot;#ffffff&quot;&gt;&amp;nbsp;&lt;/font&gt;&lt;/font&gt;" style="rounded=0;whiteSpace=wrap;html=1;fontSize=20;fontStyle=0;strokeColor=#FFFFFF;fillColor=#18141D;" parent="1" vertex="1">
                    <mxGeometry x="178" y="920" width="474" height="120" as="geometry"/>
                </mxCell>
                <mxCell id="32" value="&lt;font color=&quot;#ffffff&quot;&gt;&lt;b style=&quot;&quot;&gt;Run the python script to&lt;/b&gt;&lt;br&gt;&lt;span style=&quot;font-size: 18px;&quot;&gt;1. Create distribution of rate/area.&lt;/span&gt;&lt;br&gt;&lt;span style=&quot;font-size: 18px;&quot;&gt;2. Fit a gaussian to it and calculate&amp;nbsp;&lt;/span&gt;&lt;span style=&quot;font-size: 18px;&quot;&gt;\(3\sigma\).&lt;/span&gt;&lt;br&gt;&lt;span style=&quot;font-size: 18px;&quot;&gt;3. Cut off events outside&amp;nbsp;&lt;/span&gt;&lt;span style=&quot;font-size: 18px;&quot;&gt;\(3\sigma\)&lt;/span&gt;&lt;span style=&quot;font-size: 18px;&quot;&gt;.&lt;/span&gt;&lt;br&gt;&lt;span style=&quot;font-size: 18px;&quot;&gt;4. Re-fit a gaussian to this and calculate&amp;nbsp;&lt;/span&gt;&lt;span style=&quot;font-size: 18px;&quot;&gt;\(3\sigma\)&lt;/span&gt;&lt;span style=&quot;font-size: 18px;&quot;&gt;.&lt;/span&gt;&lt;/font&gt;" style="shape=process;whiteSpace=wrap;html=1;backgroundOutline=1;labelBackgroundColor=none;fontSize=20;fontColor=#00CCCC;size=0.06555555555555556;strokeColor=#FFFFFF;fillColor=#18141D;" parent="1" vertex="1">
                    <mxGeometry x="205" y="620" width="420.5" height="140" as="geometry"/>
                </mxCell>
                <mxCell id="34" value="&lt;font color=&quot;#ffffff&quot; size=&quot;1&quot; style=&quot;&quot;&gt;&lt;b style=&quot;font-size: 22px;&quot;&gt;END&lt;/b&gt;&lt;/font&gt;" style="rounded=1;whiteSpace=wrap;html=1;arcSize=50;strokeColor=#FFFFFF;fillColor=#18141D;" parent="1" vertex="1">
                    <mxGeometry x="355.5" y="1070" width="120" height="60" as="geometry"/>
                </mxCell>
            </root>
        </mxGraphModel>
    </diagram>
</mxfile>